[h264 @ 0x55bef7442b80] Reinit context to 1280x720, pix_fmt: yuv420p
Input #0, mov,mp4,m4a,3gp,3g2,mj2, from '/var/www/html/project/media/video/original/fvg.mp4':
  Metadata:
    major_brand     : mp42
    minor_version   : 1
    compatible_brands: isommp41mp42
    creation_time   : 2024-06-21T17:57:21.000000Z
  Duration: 00:00:35.32, start: 0.000000, bitrate: 11804 kb/s
    Stream #0:0(eng): Audio: aac (LC) (mp4a / 0x6134706D), 48000 Hz, stereo, fltp, 130 kb/s (default)
    Metadata:
      creation_time   : 2024-06-21T17:57:21.000000Z
      handler_name    : Core Media Audio
    Stream #0:1(und): Video: h264 (High), 1 reference frame (avc1 / 0x31637661), yuv420p(tv, bt709, progressive, left), 1280x720, 11639 kb/s, SAR 1:1 DAR 16:9, 25 fps, 25 tbr, 25k tbn, 50k tbc (default)
    Metadata:
      creation_time   : 2024-06-21T17:57:21.000000Z
      handler_name    : Core Media Video
Input #1, png_pipe, from '/var/www/html/project/static/images/templates/logo.png':
  Duration: N/A, bitrate: N/A
    Stream #1:0: Video: png, 1 reference frame, rgba(pc), 1920x1080 [SAR 2835:2835 DAR 16:9], 25 tbr, 25 tbn, 25 tbc
[h264 @ 0x55bef749e080] Reinit context to 1280x720, pix_fmt: yuv420p
Input #2, mov,mp4,m4a,3gp,3g2,mj2, from '/var/www/html/project/static/images/templates/Codino.mp4':
  Metadata:
    major_brand     : mp42
    minor_version   : 1
    compatible_brands: isommp41mp42
    creation_time   : 2021-07-11T07:02:58.000000Z
  Duration: 00:00:02.00, start: 0.000000, bitrate: 1007 kb/s
    Stream #2:0(ita): Audio: aac (LC) (mp4a / 0x6134706D), 44100 Hz, stereo, fltp, 102 kb/s (default)
    Metadata:
      creation_time   : 2021-07-11T07:02:58.000000Z
      handler_name    : Core Media Audio
    Stream #2:1(und): Video: h264 (High), 1 reference frame (avc1 / 0x31637661), yuv420p(tv, bt709, progressive, left), 1280x720 [SAR 1:1 DAR 16:9], 813 kb/s, 25 fps, 25 tbr, 25k tbn, 50k tbc (default)
    Metadata:
      creation_time   : 2021-07-11T07:02:58.000000Z
      handler_name    : Core Media Video
[Parsed_scale_0 @ 0x55bef7499200] w:1920 h:1080 flags:'bilinear' interl:0
[Parsed_scale_2 @ 0x55bef74a6dc0] w:1920 h:1080 flags:'bilinear' interl:0
[Parsed_scale_4 @ 0x55bef7497340] w:1920 h:1080 flags:'bilinear' interl:0
Stream mapping:
  Stream #0:0 (aac) -> concat:in0:a0
  Stream #0:1 (h264) -> scale
  Stream #1:0 (png) -> scale
  Stream #2:0 (aac) -> concat:in1:a0
  Stream #2:1 (h264) -> scale
  concat:out:v0 -> Stream #0:0 (libx264)
  concat:out:a0 -> Stream #0:1 (aac)
Press [q] to stop, [?] for help
[h264 @ 0x55bef7493540] Reinit context to 1280x720, pix_fmt: yuv420p
[h264 @ 0x55bef786abc0] Reinit context to 1280x720, pix_fmt: yuv420p
[Parsed_scale_0 @ 0x55bef88106c0] w:1920 h:1080 flags:'bilinear' interl:0
[Parsed_scale_2 @ 0x55bef8815280] w:1920 h:1080 flags:'bilinear' interl:0
[Parsed_scale_4 @ 0x55bef881a0c0] w:1920 h:1080 flags:'bilinear' interl:0
[graph 0 input from stream 0:1 @ 0x55bef881e800] w:1280 h:720 pixfmt:yuv420p tb:1/25000 fr:25/1 sar:1/1 sws_param:flags=2
[graph 0 input from stream 1:0 @ 0x55bef881f880] w:1920 h:1080 pixfmt:rgba tb:1/25 fr:25/1 sar:2835/2835 sws_param:flags=2
[graph 0 input from stream 2:1 @ 0x55bef8820900] w:1280 h:720 pixfmt:yuv420p tb:1/25000 fr:25/1 sar:1/1 sws_param:flags=2
[graph_0_in_0_0 @ 0x55bef88218c0] tb:1/48000 samplefmt:fltp samplerate:48000 chlayout:0x3
[graph_0_in_2_0 @ 0x55bef8822a00] tb:1/44100 samplefmt:fltp samplerate:44100 chlayout:0x3
[Parsed_concat_7 @ 0x55bef881c880] auto-inserting filter 'auto_resampler_0' between the filter 'graph_0_in_2_0' and the filter 'Parsed_concat_7'
[Parsed_scale_0 @ 0x55bef88106c0] w:1280 h:720 fmt:yuv420p sar:1/1 -> w:1920 h:1080 fmt:yuv420p sar:1/1 flags:0x2
[Parsed_setsar_1 @ 0x55bef8818840] w:1920 h:1080 sar:1/1 dar:16/9 -> sar:1/1 dar:16/9
[Parsed_scale_2 @ 0x55bef8815280] w:1920 h:1080 fmt:rgba sar:2835/2835 -> w:1920 h:1080 fmt:yuva420p sar:1/1 flags:0x2
[Parsed_setsar_3 @ 0x55bef8819480] w:1920 h:1080 sar:1/1 dar:16/9 -> sar:1/1 dar:16/9
[Parsed_overlay_6 @ 0x55bef881b740] main w:1920 h:1080 fmt:yuv420p overlay w:1920 h:1080 fmt:yuva420p
[Parsed_overlay_6 @ 0x55bef881b740] [framesync @ 0x55bef881b868] Selected 1/25000 time base
[Parsed_overlay_6 @ 0x55bef881b740] [framesync @ 0x55bef881b868] Sync level 2
[Parsed_scale_4 @ 0x55bef881a0c0] w:1280 h:720 fmt:yuv420p sar:1/1 -> w:1920 h:1080 fmt:yuv420p sar:1/1 flags:0x2
[Parsed_setsar_5 @ 0x55bef881ab80] w:1920 h:1080 sar:1/1 dar:16/9 -> sar:1/1 dar:16/9
[auto_resampler_0 @ 0x55bef882a680] ch:2 chl:stereo fmt:fltp r:44100Hz -> ch:2 chl:stereo fmt:fltp r:48000Hz
[libx264 @ 0x55bef74a7240] using SAR=1/1
[libx264 @ 0x55bef74a7240] using cpu capabilities: MMX2 SSE2Fast SSSE3 SSE4.2 AVX FMA3 BMI2 AVX2
[libx264 @ 0x55bef74a7240] profile High, level 4.0
[libx264 @ 0x55bef74a7240] 264 - core 155 r2917 0a84d98 - H.264/MPEG-4 AVC codec - Copyleft 2003-2018 - http://www.videolan.org/x264.html - options: cabac=1 ref=1 deblock=1:0:0 analyse=0x3:0x113 me=hex subme=2 psy=1 psy_rd=1.00:0.00 mixed_ref=0 me_range=16 chroma_me=1 trellis=0 8x8dct=1 cqm=0 deadzone=21,11 fast_pskip=1 chroma_qp_offset=0 threads=24 lookahead_threads=8 sliced_threads=0 nr=0 decimate=1 interlaced=0 bluray_compat=0 constrained_intra=0 bframes=3 b_pyramid=2 b_adapt=1 b_bias=0 direct=1 weightb=1 open_gop=0 weightp=1 keyint=250 keyint_min=25 scenecut=40 intra_refresh=0 rc_lookahead=10 rc=crf mbtree=1 crf=18.0 qcomp=0.60 qpmin=0 qpmax=69 qpstep=4 ip_ratio=1.40 aq=1:1.00
Output #0, mp4, to '/var/www/html/project/media/video/watermarks/fvg.mp4':
  Metadata:
    major_brand     : mp42
    minor_version   : 1
    compatible_brands: isommp41mp42
    encoder         : Lavf58.29.100
    Stream #0:0: Video: h264 (libx264), 1 reference frame (avc1 / 0x31637661), yuv420p(progressive), 1920x1080 [SAR 1:1 DAR 16:9], q=-1--1, 25 fps, 12800 tbn, 25 tbc (default)
    Metadata:
      encoder         : Lavc58.54.100 libx264
    Side data:
      cpb: bitrate max/min/avg: 0/0/0 buffer size: 0 vbv_delay: -1
    Stream #0:1: Audio: aac (LC) (mp4a / 0x6134706D), 48000 Hz, stereo, fltp, delay 1024, 128 kb/s (default)
    Metadata:
      encoder         : Lavc58.54.100 aac
[Parsed_concat_7 @ 0x55bef881c880] EOF on in0:a0, 1 streams left in segment.
[Parsed_overlay_6 @ 0x55bef881b740] [framesync @ 0x55bef881b868] Sync level 0
[Parsed_concat_7 @ 0x55bef881c880] EOF on in0:v0, 0 streams left in segment.
[Parsed_concat_7 @ 0x55bef881c880] Segment finished at pts=35326666
[Parsed_concat_7 @ 0x55bef881c880] EOF on in1:v0, 1 streams left in segment.
[Parsed_concat_7 @ 0x55bef881c880] EOF on in1:a0, 0 streams left in segment.
[Parsed_concat_7 @ 0x55bef881c880] Segment finished at pts=37345353
No more output streams to write to, finishing.
frame=  933 fps= 35 q=-1.0 Lsize=   29652kB time=00:00:37.35 bitrate=6502.9kbits/s speed= 1.4x    
[AVIOContext @ 0x55bef743f440] Statistics: 0 seeks, 52 writeouts
video:29046kB audio:578kB subtitle:0kB other streams:0kB global headers:0kB muxing overhead: 0.093850%
Input file #0 (/var/www/html/project/media/video/original/fvg.mp4):
  Input stream #0:0 (audio): 1658 packets read (577490 bytes); 1656 frames decoded (1695680 samples); 
  Input stream #0:1 (video): 883 packets read (51390589 bytes); 883 frames decoded; 
  Total: 2541 packets (51968079 bytes) demuxed
Input file #1 (/var/www/html/project/static/images/templates/logo.png):
  Input stream #1:0 (video): 1 packets read (111578 bytes); 1 frames decoded; 
  Total: 1 packets (111578 bytes) demuxed
Input file #2 (/var/www/html/project/static/images/templates/Codino.mp4):
  Input stream #2:0 (audio): 89 packets read (26579 bytes); 87 frames decoded (89024 samples); 
  Input stream #2:1 (video): 50 packets read (203365 bytes); 50 frames decoded; 
  Total: 139 packets (229944 bytes) demuxed
Output file #0 (/var/www/html/project/media/video/watermarks/fvg.mp4):
  Output stream #0:0 (video): 933 frames encoded; 933 packets muxed (29743317 bytes); 
  Output stream #0:1 (audio): 1751 frames encoded (1792577 samples); 1752 packets muxed (592261 bytes); 
  Total: 2685 packets (30335578 bytes) muxed
[AVIOContext @ 0x55bef74cda80] Statistics: 2 seeks, 119 writeouts
[libx264 @ 0x55bef74a7240] frame I:8     Avg QP:13.44  size:109053
[libx264 @ 0x55bef74a7240] frame P:373   Avg QP:16.01  size: 42830
[libx264 @ 0x55bef74a7240] frame B:552   Avg QP:19.00  size: 23359
[libx264 @ 0x55bef74a7240] consecutive B-frames: 19.6%  3.6%  2.6% 74.2%
[libx264 @ 0x55bef74a7240] mb I  I16..4: 30.6% 26.4% 43.0%
[libx264 @ 0x55bef74a7240] mb P  I16..4: 33.6% 26.6%  4.4%  P16..4: 13.0%  9.1%  4.7%  0.0%  0.0%    skip: 8.6%
[libx264 @ 0x55bef74a7240] mb B  I16..4:  5.5%  5.3%  0.4%  B16..8: 28.5% 13.4%  1.3%  direct:13.4%  skip:32.1%  L0:41.6% L1:44.1% BI:14.2%
[libx264 @ 0x55bef74a7240] 8x8 transform intra:42.0% inter:44.7%
[libx264 @ 0x55bef74a7240] coded y,uvDC,uvAC intra: 34.2% 29.0% 6.2% inter: 17.3% 18.4% 0.5%
[libx264 @ 0x55bef74a7240] i16 v,h,dc,p: 52% 29% 12%  7%
[libx264 @ 0x55bef74a7240] i8 v,h,dc,ddl,ddr,vr,hd,vl,hu: 29% 27% 23%  4%  3%  3%  4%  3%  4%
[libx264 @ 0x55bef74a7240] i4 v,h,dc,ddl,ddr,vr,hd,vl,hu: 32% 27% 13%  4%  6%  4%  6%  4%  4%
[libx264 @ 0x55bef74a7240] i8c dc,h,v,p: 62% 19% 16%  3%
[libx264 @ 0x55bef74a7240] Weighted P-Frames: Y:2.1% UV:0.0%
[libx264 @ 0x55bef74a7240] kb/s:6375.70
[aac @ 0x55bef75ffb80] Qavg: 1360.731
[AVIOContext @ 0x55bef7448380] Statistics: 80622740 bytes read, 1750 seeks
[AVIOContext @ 0x55bef7490a00] Statistics: 111578 bytes read, 0 seeks
[AVIOContext @ 0x55bef74458c0] Statistics: 1530915 bytes read, 42 seeks
